#usda 1.0
(
    defaultPrim = "World"
    metersPerUnit = 1
    upAxis = "Z"
)

def Xform "World"
{
    def Mesh "Ground"
    {
        uniform token subdivisionScheme = "none"
        int[] faceVertexCounts = [4, 4, 4, 4, 4, 4]
        int[] faceVertexIndices = [0, 3, 2, 1, 4, 5, 6, 7, 0, 1, 5, 4, 1, 2, 6, 5, 2, 3, 7, 6, 3, 0, 4, 7]
        point3f[] points = [(-10, -10, -0.1), (10, -10, -0.1), (10, 10, -0.1), (-10, 10, -0.1), (-10, -10, 0), (10, -10, 0), (10, 10, 0), (-10, 10, 0)]
        color3f[] primvars:displayColor = [(0.46, 0.5, 0.46)]
    }
}
